<svg width="32.227295" height="32.011795" viewBox="0 0 32.2273 32.0118" fill="none" xmlns="http://www.w3.org/2000/svg" xmlns:xlink="http://www.w3.org/1999/xlink">
	<desc>
			Created with Pixso.
	</desc>
	<defs/>
	<path id="Vector" d="M5.72 22.59C5.47 22.39 5.22 22.18 4.97 21.96C3.58 20.71 2.42 19.21 1.72 17.32C0.57 14.24 0.83 11.27 2.33 8.45C3.9 5.52 6.22 3.69 8.93 2.52C13.44 0.59 18 0.49 22.55 2.27C25.22 3.31 27.54 4.99 29.26 7.65C31.73 11.48 31.56 16.38 28.84 20C26.65 22.94 23.81 24.54 20.62 25.42C18.89 25.9 14.41 25.08 13.26 26.18C10.84 28.56 8.05 30.07 4.96 30.83C4.68 30.89 4.39 30.94 4.11 30.99C3.75 31.05 3.45 30.93 3.27 30.54C3.08 30.14 3.15 29.79 3.38 29.46C3.65 29.08 3.92 28.71 4.21 28.36C5.13 27.27 5.85 25.96 6.31 24.53C6.55 23.81 6.27 23.04 5.72 22.59Z" stroke="#FFFFFF" stroke-opacity="0.500000" stroke-width="2.000000"/>
</svg>
