<svg width="32.000000" height="27.010513" viewBox="0 0 32 27.0105" fill="none" xmlns="http://www.w3.org/2000/svg" xmlns:xlink="http://www.w3.org/1999/xlink">
	<desc>
			Created with Pixso.
	</desc>
	<defs/>
	<path id="Vector" d="M27.24 9.55L27.24 19.05C27.24 19.93 26.81 20.75 26.07 21.28C20.63 25.16 13.19 25.16 7.75 21.28C7.01 20.75 6.58 19.93 6.58 19.05C6.58 18.16 6.58 10.18 6.58 10.18M19.73 6.11L29.67 9.03C30.46 9.27 31 9.97 31 10.76L31 20.32M31 23.64L31 26.01M29.69 8.72C31.36 8.16 31.36 5.87 29.69 5.31L17.83 1.31C16.63 0.9 15.31 0.9 14.11 1.31L2.25 5.31C0.58 5.87 0.58 8.16 2.25 8.72L14.11 12.72C15.31 13.12 16.63 13.12 17.83 12.72L29.69 8.72Z" stroke="#FFFFFF" stroke-opacity="0.500000" stroke-width="2.000000" stroke-linecap="round"/>
</svg>
