<svg width="29.000000" height="27.105774" viewBox="0 0 29 27.1058" fill="none" xmlns="http://www.w3.org/2000/svg" xmlns:xlink="http://www.w3.org/1999/xlink">
	<desc>
			Created with Pixso.
	</desc>
	<defs/>
	<path id="Vector" d="M20.64 1C18.06 1 16.44 2.41 15.52 3.66C15.08 4.24 13.91 4.24 13.47 3.66C12.55 2.41 10.93 1 8.35 1C3.76 1 1 5.84 1 9.83C1 15.05 9.24 22.42 12.84 25.39C13.83 26.2 15.16 26.2 16.15 25.39C19.75 22.42 28 15.05 28 9.83C28 5.84 25.23 1 20.64 1Z" fill="#FE987C" fill-opacity="0" fill-rule="nonzero"/>
	<path id="Vector" d="M15.52 3.66C15.08 4.24 13.91 4.24 13.47 3.66C12.55 2.41 10.93 1 8.35 1C3.76 1 1 5.84 1 9.83C1 15.05 9.24 22.42 12.84 25.39C13.83 26.2 15.16 26.2 16.15 25.39C19.75 22.42 28 15.05 28 9.83C28 5.84 25.23 1 20.64 1C18.06 1 16.44 2.41 15.52 3.66Z" stroke="#DCDCDB" stroke-opacity="1.000000" stroke-width="2.000000"/>
</svg>
