<svg width="29.538086" height="36.923065" viewBox="0 0 29.5381 36.9231" fill="none" xmlns="http://www.w3.org/2000/svg" xmlns:xlink="http://www.w3.org/1999/xlink">
	<desc>
			Created with Pixso.
	</desc>
	<defs>
		<clipPath id="clip62_2">
			<rect id="Выход" width="29.538462" height="36.923077" transform="matrix(-1 0 0 1 29.5381 0)" fill="white" fill-opacity="0"/>
		</clipPath>
	</defs>
	<g clip-path="url(#clip62_2)">
		<path id="path" d="M14.79 3.88L14.77 3.86C14.35 3.86 14.02 4.19 14.02 4.61C14.02 5.03 14.35 5.36 14.77 5.36L14.79 5.34L14.79 3.88ZM14.78 31.57L14.76 31.55C14.34 31.55 14.01 31.88 14.01 32.3C14.01 32.72 14.34 33.05 14.76 33.05L14.78 33.03L14.78 31.57Z" fill="#000000" fill-opacity="0" fill-rule="nonzero"/>
		<path id="path" d="M14.77 4.61L25.84 4.61L25.84 32.3L14.76 32.3" stroke="#E9A98F" stroke-opacity="1.000000" stroke-width="1.500000" stroke-linejoin="round" stroke-linecap="round"/>
		<path id="path" d="M8.64 25.82L8.64 25.85C8.9 26.18 9.37 26.23 9.69 25.97C10.02 25.7 10.07 25.24 9.81 24.91L9.78 24.91L8.64 25.82ZM9.78 12.01L9.81 12C10.07 11.67 10.02 11.21 9.69 10.95C9.37 10.69 8.9 10.74 8.64 11.06L8.64 11.09L9.78 12.01Z" fill="#000000" fill-opacity="0" fill-rule="nonzero"/>
		<path id="path" d="M9.23 25.38L3.69 18.46L9.23 11.53" stroke="#E9A98F" stroke-opacity="1.000000" stroke-width="1.500000" stroke-linejoin="round" stroke-linecap="round"/>
		<path id="path" d="M19.67 19.18L19.69 19.2C20.11 19.2 20.44 18.87 20.44 18.45C20.44 18.03 20.11 17.7 19.69 17.7L19.67 17.72L19.67 19.18ZM3.71 17.72L3.69 17.7C3.27 17.7 2.94 18.03 2.94 18.45C2.94 18.87 3.27 19.2 3.69 19.2L3.71 19.18L3.71 17.72Z" fill="#000000" fill-opacity="0" fill-rule="nonzero"/>
		<path id="path" d="M19.69 18.45L3.69 18.45" stroke="#E9A98F" stroke-opacity="1.000000" stroke-width="1.500000" stroke-linejoin="round" stroke-linecap="round"/>
	</g>
</svg>
