<svg width="27.000000" height="27.000000" viewBox="0 0 27 27" fill="none" xmlns="http://www.w3.org/2000/svg" xmlns:xlink="http://www.w3.org/1999/xlink">
	<desc>
			Created with Pixso.
	</desc>
	<defs>
		<clipPath id="clip57_41">
			<rect id="Set up" width="27.000000" height="27.000000" fill="white" fill-opacity="0"/>
		</clipPath>
	</defs>
	<g clip-path="url(#clip57_41)">
		<path id="path" d="M10.28 24.28C8.39 23.72 6.72 22.68 5.39 21.3C5.88 20.71 6.18 19.95 6.18 19.12C6.18 17.26 4.67 15.75 2.81 15.75C2.7 15.75 2.58 15.75 2.47 15.76C2.32 15.03 2.25 14.27 2.25 13.5C2.25 12.32 2.43 11.19 2.76 10.12C4.62 10.12 6.18 8.61 6.18 6.75C6.18 6.21 6.06 5.7 5.84 5.25C7.14 4.04 8.73 3.14 10.49 2.65C11.04 3.75 12.18 4.5 13.5 4.5C14.81 4.5 15.95 3.75 16.5 2.65C18.26 3.14 19.85 4.04 21.15 5.25C20.93 5.7 20.81 6.21 20.81 6.75C20.81 8.61 22.32 10.12 24.18 10.12C24.52 11.19 24.75 12.32 24.75 13.5C24.75 14.27 24.67 15.03 24.52 15.76C24.41 15.75 24.29 15.75 24.18 15.75C22.32 15.75 20.81 17.26 20.81 19.12C20.81 19.95 21.11 20.71 21.6 21.3C20.27 22.68 18.6 23.72 16.71 24.28C16.28 22.92 15 21.93 13.5 21.93C11.99 21.93 10.71 22.92 10.28 24.28Z" fill="#000000" fill-opacity="0" fill-rule="nonzero"/>
		<path id="path" d="M5.39 21.3C5.88 20.71 6.18 19.95 6.18 19.12C6.18 17.26 4.67 15.75 2.81 15.75C2.7 15.75 2.58 15.75 2.47 15.76C2.32 15.03 2.25 14.27 2.25 13.5C2.25 12.32 2.43 11.19 2.76 10.12C4.62 10.12 6.18 8.61 6.18 6.75C6.18 6.21 6.06 5.7 5.84 5.25C7.14 4.04 8.73 3.14 10.49 2.65C11.04 3.75 12.18 4.5 13.5 4.5C14.81 4.5 15.95 3.75 16.5 2.65C18.26 3.14 19.85 4.04 21.15 5.25C20.93 5.7 20.81 6.21 20.81 6.75C20.81 8.61 22.32 10.12 24.18 10.12C24.52 11.19 24.75 12.32 24.75 13.5C24.75 14.27 24.67 15.03 24.52 15.76C24.41 15.75 24.29 15.75 24.18 15.75C22.32 15.75 20.81 17.26 20.81 19.12C20.81 19.95 21.11 20.71 21.6 21.3C20.27 22.68 18.6 23.72 16.71 24.28C16.28 22.92 15 21.93 13.5 21.93C11.99 21.93 10.71 22.92 10.28 24.28C8.39 23.72 6.72 22.68 5.39 21.3Z" stroke="#B2B2B5" stroke-opacity="1.000000" stroke-width="2.000000" stroke-linejoin="round"/>
		<path id="path" d="M13.5 17.43C15.67 17.43 17.43 15.67 17.43 13.5C17.43 11.32 15.67 9.56 13.5 9.56C11.32 9.56 9.56 11.32 9.56 13.5C9.56 15.67 11.32 17.43 13.5 17.43Z" fill="#000000" fill-opacity="0" fill-rule="nonzero"/>
		<path id="path" d="M17.43 13.5C17.43 11.32 15.67 9.56 13.5 9.56C11.32 9.56 9.56 11.32 9.56 13.5C9.56 15.67 11.32 17.43 13.5 17.43C15.67 17.43 17.43 15.67 17.43 13.5Z" stroke="#B2B2B5" stroke-opacity="1.000000" stroke-width="2.000000" stroke-linejoin="round"/>
	</g>
</svg>
